<svg xmlns="http://www.w3.org/2000/svg" width="216" height="41" viewBox="0 0 216 41" fill="none"><path d="M0.784904 31.4888L4.92355 38.9375L8.48571 32.5271L21.8177 8.53213C22.346 7.58188 23.7125 7.58188 24.2402 8.53213L28.0367 15.3657L33.8586 4.88761L32.9273 3.21074C31.8269 1.23106 29.7402 0.00333786 27.4754 0.00333786H18.5824C16.3176 0.00333786 14.2309 1.23106 13.1305 3.21074L0.784904 25.4301C-0.261635 27.3141 -0.261635 29.6048 0.784904 31.4888Z" fill="#B8A567"/><path d="M38.6591 3.2074L22.847 31.7193C22.5714 32.2159 22.0487 32.5238 21.4805 32.5238H12.3676L7.6582 41H25.6343C27.8997 41 29.9865 39.7723 31.0862 37.7926L47.3298 8.50154C47.8575 7.55066 49.2245 7.55003 49.7529 8.50091L61.9572 30.4649C62.4704 31.3886 61.8027 32.5238 60.746 32.5238H50.1368C49.5698 32.5238 49.0465 32.2165 48.7716 31.7205L43.5604 22.3422L37.7386 32.8203L40.5013 37.7926C41.601 39.7723 43.6884 41 45.9532 41H61.8451C64.1105 41 66.1972 39.7723 67.297 37.7926L70.8015 31.4855C71.848 29.6015 71.848 27.3107 70.8015 25.4267L58.4559 3.2074C57.3555 1.22772 55.2688 0 53.004 0H44.111C41.8462 0 39.7595 1.22772 38.6591 3.2074Z" fill="#B8A567"/><path d="M215.403 7.25822L211.179 3.03468C210.81 2.66599 210.31 2.45883 209.788 2.45883H192.841C192.033 2.45883 191.378 3.11324 191.378 3.92095V16.2792H175.102L180.573 9.15491C180.908 8.71843 181.003 8.14638 180.828 7.62438L179.987 5.11066C179.838 4.66467 179.535 4.29218 179.134 4.06158C177.248 2.97704 174.171 1.6847 170.22 1.6847C166.273 1.6847 163.203 2.9745 161.323 4.05652C160.922 4.28711 160.619 4.65961 160.47 5.10559L159.626 7.62755C159.451 8.14955 159.547 8.7216 159.881 9.15744L165.342 16.2792H143.057V0.664133H139.114V18.1981C139.114 19.0052 139.768 19.6602 140.576 19.6602L209.788 19.6621C210.31 19.6621 210.81 19.455 211.179 19.0863L215.403 14.8627C215.772 14.4934 215.979 13.9936 215.979 13.4716V8.64874C215.979 8.12738 215.772 7.62691 215.403 7.25822ZM163.4 7.32093C163.448 7.13025 163.579 6.97188 163.76 6.88572C165.162 6.21928 167.421 5.42487 170.22 5.42487C173.021 5.42487 175.284 6.21991 176.689 6.88635C176.87 6.97251 177.002 7.13088 177.05 7.32157C177.097 7.51098 177.056 7.70927 176.936 7.86637L170.737 16.0037C170.615 16.1646 170.426 16.2564 170.221 16.2564C170.016 16.2564 169.827 16.1639 169.705 16.003L163.513 7.86511C163.394 7.708 163.353 7.51035 163.4 7.32093ZM212.099 12.1374C212.099 12.4776 211.964 12.8039 211.722 13.044L208.922 15.8307C208.682 16.0689 208.358 16.2026 208.019 16.2026H195.325V5.84678H208.007C208.346 5.84678 208.67 5.98108 208.91 6.21928L211.722 9.01807C211.964 9.25817 212.099 9.58442 212.099 9.92461V12.1374ZM104.27 2.45883H108.2V18.1975C108.2 19.0052 107.546 19.6596 106.738 19.6596H85.9089C85.1012 19.6596 84.4468 19.0052 84.4468 18.1975V2.45883H88.377V16.2792H104.27V2.45883ZM98.3717 6.75965H94.2755V0.6635H98.3717V6.75965ZM136.074 14.5327C136.446 15.1921 136.446 15.998 136.074 16.6581L134.885 18.7676C134.574 19.3207 133.988 19.6621 133.354 19.6621H111.946V16.2792H131.93C132.283 16.2792 132.505 15.8991 132.332 15.5913L126.98 6.08624C126.892 5.92977 126.726 5.83221 126.546 5.83221H111.946V2.45883H128.244C128.878 2.45883 129.463 2.80029 129.775 3.35333L136.074 14.5327Z" fill="#F7F3E9"/><path d="M179.421 34.0129H191.615V31.1596H179.421V27.6937H193.07V24.8443H176.835C176.395 24.8443 176.037 25.2022 176 25.6425V39.5383C176 39.9766 176.355 40.332 176.794 40.332H193.07V37.4838H179.421V34.0129Z" fill="#F7F3E9"/><path d="M117.682 24.8431H121.264C121.673 24.8431 122.05 25.0655 122.248 25.4228L130.534 40.3359H126.76L125.54 38.1396H115.131L116.716 35.2851H123.954L119.872 27.932C119.693 27.6102 119.23 27.6102 119.051 27.932L112.164 40.3359H108.411L116.697 25.4228C116.896 25.0655 117.273 24.8431 117.682 24.8431Z" fill="#F7F3E9"/><path d="M140.229 24.8431H143.811C144.22 24.8431 144.597 25.0655 144.795 25.4228L153.082 40.3359H149.308L148.088 38.1396H137.678L139.263 35.2851H146.501L142.42 27.932C142.24 27.6102 141.777 27.6102 141.598 27.932L134.711 40.3359H130.958L139.245 25.4228C139.443 25.0655 139.82 24.8431 140.229 24.8431Z" fill="#F7F3E9"/><path d="M212.587 24.8419V37.4429H212.553C212.369 37.4429 212.193 37.3637 212.072 37.2256L201.678 25.4919C201.313 25.0795 200.788 24.8432 200.237 24.8432H200.235L196.425 24.847C195.987 24.8476 195.632 25.2037 195.632 25.6427L195.659 40.3398L199.031 40.3335V27.732H199.054C199.239 27.732 199.414 27.8112 199.537 27.9493L209.933 39.6867C210.298 40.0991 210.823 40.3354 211.374 40.3354H211.377L215.181 40.3316C215.619 40.3316 215.974 39.9762 215.974 39.5378V24.8419H212.587Z" fill="#F7F3E9"/><path d="M106.378 24.8418H102.558C101.985 24.8418 101.465 25.1808 101.234 25.7059L96.2271 37.1007C96.1435 37.292 95.8299 37.2913 95.7469 37.1L90.7765 25.7097C90.5465 25.1827 90.0264 24.8418 89.4512 24.8418H85.5856C85.2942 24.8418 85.0053 24.935 84.7868 25.1282C84.5365 25.3499 84.3978 25.6603 84.3984 25.9916L84.4003 40.3328L87.801 40.3264L87.8029 27.6913H87.9657C88.0797 27.6913 88.183 27.7585 88.2279 27.863L93.289 39.4617C93.5189 39.9894 94.039 40.3296 94.6142 40.3296H97.3174C97.8926 40.3296 98.4127 39.9894 98.6426 39.4617L103.704 27.863C103.749 27.7585 103.852 27.6913 103.966 27.6913H104.129V40.3226L107.565 40.3359V25.9942C107.567 25.6629 107.429 25.3524 107.178 25.1301C106.96 24.9356 106.67 24.8418 106.378 24.8418Z" fill="#F7F3E9"/><path d="M172.81 28.4693L169.832 25.4912C169.416 25.0743 168.862 24.845 168.273 24.845H154.779C154.339 24.845 153.981 25.2029 153.981 25.6432V39.5377C153.981 39.978 154.339 40.3359 154.779 40.3359H168.273C168.862 40.3359 169.416 40.1066 169.832 39.6904L172.81 36.7117C173.227 36.2955 173.456 35.7418 173.456 35.1527V30.0283C173.456 29.4391 173.227 28.8855 172.81 28.4693ZM157.402 37.4827V27.6926H167.07C167.302 27.6926 167.525 27.7844 167.689 27.9485L169.914 30.174C170.078 30.3381 170.17 30.5604 170.17 30.7923V34.3925C170.17 34.6243 170.078 34.8467 169.914 35.0108L167.698 37.2267C167.534 37.3908 167.312 37.4827 167.08 37.4827H157.402Z" fill="#F7F3E9"/></svg>